<?xml version="1.0" encoding="iso-8859-1"?>
<!-- Generator: Adobe Illustrator 19.0.0, SVG Export Plug-In . SVG Version: 6.00 Build 0)  -->
<svg version="1.1" id="Capa_1" xmlns="http://www.w3.org/2000/svg" xmlns:xlink="http://www.w3.org/1999/xlink" x="0px" y="0px"
	 viewBox="0 0 512 512" style="enable-background:new 0 0 512 512;" xml:space="preserve">
<path style="fill:#FF0C38;" d="M256.492,89.522V48.929l43.177,14.593c5.33,1.802,5.33,9.606,0,11.407L256.492,89.522z"/>
<rect x="155.68" y="152.83" style="fill:#898890;" width="200.39" height="310.24"/>
<path style="fill:#ACABB1;" d="M334.635,111.495v18.948h-29.33v-18.948c0-4.804-3.864-8.698-8.629-8.698h-17.44
	c-4.755,0-8.614,3.877-8.629,8.671l-0.06,18.976h-29.33l0.08-18.91c0.02-4.819-3.849-8.736-8.629-8.736h-17.581
	c-4.766,0-8.629,3.894-8.629,8.698v18.948h-29.33v-18.948c0-4.804-3.864-8.698-8.629-8.698h-17.413
	c-4.766,0-8.629,3.894-8.629,8.698v45.198c0,4.804,3.864,8.698,8.629,8.698H360.68c4.766,0,8.629-3.894,8.629-8.698v-45.198
	c0-4.804-3.864-8.698-8.629-8.698h-17.413C338.499,102.797,334.635,106.691,334.635,111.495z"/>
<g>
	<path style="fill:#898890;" d="M286.449,111.467c0.015-4.793,3.874-8.671,8.629-8.671h-15.843c-4.755,0-8.614,3.877-8.629,8.671
		l-0.06,18.976h9.862c3.306,0,5.989-2.675,6-5.981L286.449,111.467z"/>
	<path style="fill:#898890;" d="M350.478,111.495c0-4.804,3.864-8.698,8.629-8.698h-15.843c-4.766,0-8.629,3.894-8.629,8.698v18.948
		h9.843c3.314,0,6-2.686,6-6V111.495z"/>
	<path style="fill:#898890;" d="M222.299,111.495c0-4.804,3.864-8.698,8.629-8.698h-15.843c-4.766,0-8.629,3.894-8.629,8.698v18.948
		h9.843c3.314,0,6-2.686,6-6V111.495z"/>
	<path style="fill:#898890;" d="M158.298,156.693v-45.198c0-4.804,3.864-8.698,8.629-8.698h-15.843
		c-4.766,0-8.629,3.894-8.629,8.698v45.198c0,4.804,3.864,8.698,8.629,8.698h15.843
		C162.161,165.391,158.298,161.497,158.298,156.693z"/>
</g>
<g>
	<path style="fill:#3E3D42;" d="M234.178,275.043v-62.551c0-10.892-8.841-19.804-19.647-19.804l0,0
		c-10.806,0-19.647,8.912-19.647,19.804v62.551c0,3.899,3.135,7.059,7.003,7.059h25.289
		C231.043,282.102,234.178,278.942,234.178,275.043z"/>
	<path style="fill:#3E3D42;" d="M316.877,275.043v-62.551c0-10.892-8.841-19.804-19.647-19.804l0,0
		c-10.806,0-19.647,8.912-19.647,19.804v62.551c0,3.899,3.135,7.059,7.003,7.059h25.289
		C313.741,282.102,316.877,278.942,316.877,275.043z"/>
</g>
<path style="fill:#9A4C00;" d="M276.848,317.777c-12.505-8.873-29.43-8.873-41.935,0c-30.707,21.789-32.293,63.867-32.293,63.867
	v81.427h106.52v-81.427C309.14,381.644,307.555,339.567,276.848,317.777z"/>
<path style="fill:#663A00;" d="M243.969,365.144c0,0,1.153-30.491,20.438-53.002c-9.99-2.4-20.808-0.529-29.495,5.635
	c-30.707,21.789-32.293,63.867-32.293,63.867v81.427h41.349v-97.927H243.969z"/>
<path style="fill:#CC7400;" d="M224.194,463.071v-80.836c0.211-2.918,2.816-32.257,23.137-46.675
	c2.482-1.761,5.438-2.692,8.549-2.692c3.111,0,6.068,0.931,8.549,2.691c20.187,14.324,22.892,43.371,23.138,46.722v80.789
	L224.194,463.071L224.194,463.071z"/>
<path style="fill:#AA6100;" d="M255.88,332.868c-3.112,0-6.068,0.931-8.549,2.692c-20.321,14.418-22.927,43.757-23.137,46.675
	v80.836h31.687V332.868H255.88z"/>
<path style="fill:#9A4C00;" d="M251.484,333.523c-1.48,0.453-2.879,1.134-4.152,2.038c-20.321,14.418-22.927,43.757-23.137,46.675
	v80.836h19.776v-97.927C243.969,365.144,244.534,350.206,251.484,333.523z"/>
<g>
	<path style="fill:#2D2D30;" d="M214.531,275.043v-62.551c0-7.288,3.968-13.673,9.824-17.111c-2.897-1.701-6.247-2.693-9.824-2.693
		l0,0c-10.806,0-19.647,8.912-19.647,19.805v62.551c0,3.899,3.135,7.059,7.003,7.059h19.647
		C217.666,282.102,214.531,278.942,214.531,275.043z"/>
	<path style="fill:#2D2D30;" d="M297.229,275.043v-62.551c0-7.288,3.968-13.673,9.824-17.111c-2.897-1.701-6.247-2.693-9.824-2.693
		l0,0c-10.806,0-19.647,8.912-19.647,19.805v62.551c0,3.899,3.135,7.059,7.003,7.059h19.647
		C300.365,282.102,297.229,278.942,297.229,275.043z"/>
</g>
<g>
	<path style="fill:#787680;" d="M453.997,213.133c-11.12,0-20.135-9.087-20.135-20.296h40.271
		C474.132,204.046,465.117,213.133,453.997,213.133z"/>
	<path style="fill:#787680;" d="M392.153,213.133c-11.12,0-20.135-9.087-20.135-20.296h40.271
		C412.288,204.046,403.273,213.133,392.153,213.133z"/>
</g>
<path style="fill:#3E3D42;" d="M403.427,324.47v-62.551c0-10.892,8.841-19.804,19.647-19.804l0,0
	c10.806,0,19.647,8.912,19.647,19.804v62.551c0,3.899-3.135,7.059-7.003,7.059H410.43
	C406.563,331.529,403.427,328.368,403.427,324.47z"/>
<path id="SVGCleanerId_0" style="fill:#2D2D30;" d="M423.075,324.47v-62.551c0-7.288,3.968-13.673,9.824-17.111
	c-2.897-1.701-6.247-2.693-9.824-2.693l0,0c-10.806,0-19.647,8.912-19.647,19.804v62.551c0,3.899,3.135,7.059,7.003,7.059h19.647
	C426.21,331.529,423.075,328.368,423.075,324.47z"/>
<path style="fill:#C6C5CA;" d="M155.803,463.071H30.677c-4.766,0-8.629-3.894-8.629-8.698V174.957h133.756v288.114H155.803z"/>
<path style="fill:#ACABB1;" d="M58.003,174.957H22.047v279.416c0,4.804,3.864,8.698,8.629,8.698h27.326L58.003,174.957
	L58.003,174.957z"/>
<path style="fill:#3E3D42;" d="M108.573,324.469v-62.551c0-10.892-8.841-19.804-19.647-19.804l0,0
	c-10.806,0-19.647,8.912-19.647,19.804v62.551c0,3.899,3.135,7.059,7.003,7.059h25.289
	C105.437,331.529,108.573,328.368,108.573,324.469z"/>
<path style="fill:#2D2D30;" d="M88.925,324.469v-62.551c0-7.288,3.968-13.673,9.824-17.111c-2.897-1.701-6.247-2.693-9.824-2.693
	l0,0c-10.806,0-19.647,8.912-19.647,19.804v62.551c0,3.899,3.135,7.059,7.003,7.059h19.647
	C92.061,331.529,88.925,328.368,88.925,324.469z"/>
<path style="fill:#D8D7DA;" d="M135.679,138.94v18.948h-29.418V138.94c0-4.804-3.864-8.698-8.629-8.698H80.219
	c-4.766,0-8.629,3.894-8.629,8.698v18.948H42.171V138.94c0-4.804-3.864-8.698-8.629-8.698H16.129c-4.766,0-8.629,3.894-8.629,8.698
	v45.198c0,4.804,3.864,8.698,8.629,8.698h145.592c4.766,0,8.629-3.894,8.629-8.698V138.94c0-4.804-3.864-8.698-8.629-8.698h-17.413
	C139.543,130.242,135.679,134.136,135.679,138.94z"/>
<g>
	<path style="fill:#C6C5CA;" d="M88.59,138.94c0-4.804,3.863-8.698,8.629-8.698h-17c-4.766,0-8.629,3.894-8.629,8.698v18.948h11
		c3.314,0,6-2.686,6-6V138.94z"/>
	<path style="fill:#C6C5CA;" d="M152.679,138.94c0-4.804,3.863-8.698,8.629-8.698h-17c-4.766,0-8.629,3.894-8.629,8.698v18.948h11
		c3.314,0,6-2.686,6-6V138.94z"/>
	<path style="fill:#C6C5CA;" d="M24.5,184.138V138.94c0-4.804,3.864-8.698,8.629-8.698h-17c-4.766,0-8.629,3.894-8.629,8.698v45.198
		c0,4.804,3.864,8.698,8.629,8.698h17C28.364,192.837,24.5,188.942,24.5,184.138z"/>
</g>
<path style="fill:#787680;" d="M58.003,213.133c11.12,0,20.135-9.087,20.135-20.296h-40.27
	C37.868,204.046,46.883,213.133,58.003,213.133z"/>
<path style="fill:#57565C;" d="M58.003,192.837H37.868c0,11.209,9.015,20.296,20.135,20.296c3.672,0,7.104-1.007,10.068-2.737
	C62.058,206.885,58.003,200.345,58.003,192.837z"/>
<path style="fill:#787680;" d="M119.847,213.133c11.12,0,20.135-9.087,20.135-20.296h-40.27
	C99.712,204.046,108.727,213.133,119.847,213.133z"/>
<path style="fill:#57565C;" d="M119.847,192.837H99.712c0,11.209,9.015,20.296,20.135,20.296c3.672,0,7.104-1.007,10.068-2.737
	C123.902,206.885,119.847,200.345,119.847,192.837z"/>
<path style="fill:#C6C5CA;" d="M483.953,463.071H356.078l0.12-288.114h133.756v282.114
	C489.953,460.385,487.266,463.071,483.953,463.071z"/>
<polygon style="fill:#ACABB1;" points="392.153,174.957 356.197,174.957 356.077,463.071 392.153,463.071 "/>
<path style="fill:#3E3D42;" d="M442.722,324.47v-62.551c0-10.892-8.841-19.804-19.647-19.804l0,0
	c-10.806,0-19.647,8.912-19.647,19.804v62.551c0,3.899,3.135,7.059,7.003,7.059h25.289
	C439.587,331.529,442.722,328.368,442.722,324.47z"/>
<g>
	<path id="SVGCleanerId_0_1_" style="fill:#2D2D30;" d="M423.075,324.47v-62.551c0-7.288,3.968-13.673,9.824-17.111
		c-2.897-1.701-6.247-2.693-9.824-2.693l0,0c-10.806,0-19.647,8.912-19.647,19.804v62.551c0,3.899,3.135,7.059,7.003,7.059h19.647
		C426.21,331.529,423.075,328.368,423.075,324.47z"/>
</g>
<path style="fill:#D8D7DA;" d="M469.829,138.941v18.948H440.41v-18.948c0-4.804-3.864-8.698-8.629-8.698h-17.413
	c-4.766,0-8.629,3.894-8.629,8.698v18.948h-29.418v-18.948c0-4.804-3.864-8.698-8.629-8.698h-17.413
	c-4.766,0-8.629,3.894-8.629,8.698v45.198c0,4.804,3.864,8.698,8.629,8.698h145.592c4.766,0,8.629-3.894,8.629-8.698v-45.198
	c0-4.804-3.864-8.698-8.629-8.698h-17.413C473.692,130.242,469.829,134.136,469.829,138.941z"/>
<g>
	<path style="fill:#C6C5CA;" d="M422.739,138.941c0-4.804,3.863-8.698,8.629-8.698h-17c-4.766,0-8.629,3.894-8.629,8.698v18.948h11
		c3.314,0,6-2.686,6-6V138.941z"/>
	<path style="fill:#C6C5CA;" d="M486.829,138.941c0-4.804,3.863-8.698,8.629-8.698h-17c-4.766,0-8.629,3.894-8.629,8.698v18.948h11
		c3.314,0,6-2.686,6-6V138.941z"/>
	<path style="fill:#C6C5CA;" d="M358.649,184.139v-45.198c0-4.804,3.864-8.698,8.629-8.698h-17c-4.766,0-8.629,3.894-8.629,8.698
		v45.198c0,4.804,3.864,8.698,8.629,8.698h17C362.513,192.837,358.649,188.942,358.649,184.139z"/>
</g>
<path style="fill:#787680;" d="M392.153,213.133c11.12,0,20.135-9.087,20.135-20.296h-40.271
	C372.017,204.046,381.032,213.133,392.153,213.133z"/>
<path style="fill:#57565C;" d="M392.153,192.837h-20.135c0,11.209,9.015,20.296,20.135,20.296c3.672,0,7.104-1.007,10.068-2.737
	C396.208,206.885,392.153,200.345,392.153,192.837z"/>
<path style="fill:#787680;" d="M453.997,213.133c11.12,0,20.135-9.087,20.135-20.296h-40.271
	C433.861,204.046,442.876,213.133,453.997,213.133z"/>
<path style="fill:#57565C;" d="M453.997,192.837h-20.135c0,11.209,9.015,20.296,20.135,20.296c3.672,0,7.104-1.007,10.068-2.737
	C458.052,206.885,453.997,200.345,453.997,192.837z"/>
<path d="M214.531,185.188c-14.969,0-27.147,12.249-27.147,27.305v62.551c0,8.028,6.506,14.559,14.503,14.559h25.289
	c7.997,0,14.503-6.531,14.503-14.559v-62.551C241.678,197.437,229.5,185.188,214.531,185.188z M226.678,274.602h-24.294v-62.11
	c0-6.785,5.449-12.305,12.147-12.305s12.147,5.52,12.147,12.305V274.602z"/>
<path d="M324.377,275.043v-62.551c0-15.056-12.178-27.305-27.147-27.305s-27.147,12.249-27.147,27.305v62.551
	c0,8.028,6.506,14.559,14.503,14.559h25.289C317.871,289.602,324.377,283.071,324.377,275.043z M309.377,274.602h-24.295v-62.11
	c0-6.785,5.449-12.305,12.147-12.305s12.147,5.52,12.147,12.305v62.11H309.377z"/>
<path d="M88.925,234.614c-14.969,0-27.147,12.249-27.147,27.305v13.917c0,4.142,3.358,7.5,7.5,7.5s7.5-3.358,7.5-7.5v-13.917
	c0-6.785,5.449-12.305,12.147-12.305s12.147,5.52,12.147,12.305v62.11H76.778v-16.08c0-4.142-3.358-7.5-7.5-7.5s-7.5,3.358-7.5,7.5
	v16.521c0,8.028,6.506,14.559,14.503,14.559h25.289c7.997,0,14.503-6.531,14.503-14.559v-62.551
	C116.073,246.863,103.895,234.614,88.925,234.614z"/>
<path d="M395.927,261.919v62.551c0,8.028,6.506,14.559,14.503,14.559h25.289c7.997,0,14.503-6.531,14.503-14.559v-62.551
	c0-15.056-12.178-27.305-27.147-27.305S395.927,246.863,395.927,261.919z M435.222,261.919v62.11h-24.295v-62.11
	c0-6.785,5.449-12.305,12.147-12.305S435.222,255.134,435.222,261.919z"/>
<path d="M495.871,122.742h-17.413c-8.894,0-16.129,7.267-16.129,16.199v11.448H447.91v-11.448c0-8.932-7.236-16.199-16.129-16.199
	h-17.413c-8.894,0-16.129,7.267-16.129,16.199v11.448h-14.418v-11.448c0-5.536-2.783-10.428-7.014-13.351v-14.095
	c0-8.932-7.236-16.198-16.129-16.198h-17.413c-8.894,0-16.129,7.267-16.129,16.198v11.448h-14.331v-11.448
	c0-8.932-7.236-16.198-16.129-16.198h-17.44c-7.054,0-13.063,4.592-15.243,10.951V94.904l38.078-12.869
	c5.525-1.868,9.096-6.895,9.096-12.808c0-5.914-3.57-10.942-9.096-12.81l-43.177-14.593c-0.762-0.258-1.55-0.377-2.334-0.384
	c-0.077-0.002-0.152-0.011-0.23-0.011c-0.021,0-0.041,0.003-0.062,0.003c-0.005,0-0.01,0.001-0.015,0.001
	c-4.196,0.041-7.585,3.38-7.585,7.496v60.621c-0.425-3.589-2.009-6.912-4.595-9.509c-3.046-3.059-7.097-4.744-11.405-4.744h-17.581
	c-8.894,0-16.129,7.267-16.129,16.198v11.448h-14.331v-11.448c0-8.932-7.236-16.198-16.129-16.198h-17.413
	c-8.894,0-16.129,7.267-16.129,16.198v14.275c-4.093,2.941-6.775,7.742-6.775,13.171v11.448h-14.418v-11.448
	c0-8.932-7.236-16.199-16.129-16.199H80.219c-8.894,0-16.129,7.267-16.129,16.199v11.448H49.671v-11.448
	c0-8.932-7.236-16.199-16.129-16.199H16.129C7.236,122.742,0,130.009,0,138.941v45.198c0,8.395,6.394,15.316,14.547,16.118v254.117
	c0,8.932,7.236,16.198,16.129,16.198h453.276c7.444,0,13.5-6.056,13.5-13.5v-25.236c0-4.142-3.358-7.5-7.5-7.5s-7.5,3.358-7.5,7.5
	v23.736H363.58l0.106-255.234h1.862c3.263,11.694,13.95,20.296,26.605,20.296s23.342-8.602,26.605-20.296h8.634
	c3.263,11.694,13.95,20.296,26.605,20.296s23.342-8.602,26.605-20.296h1.851v198.499c0,4.142,3.358,7.5,7.5,7.5s7.5-3.358,7.5-7.5
	V200.256c8.154-0.801,14.547-7.722,14.547-16.118V138.94C512,130.009,504.764,122.742,495.871,122.742z M405.739,165.388
	c4.142,0,7.5-3.358,7.5-7.5V138.94c0-0.661,0.507-1.199,1.129-1.199h17.413c0.623,0,1.129,0.538,1.129,1.199v18.948
	c0,4.142,3.358,7.5,7.5,7.5h29.418c4.142,0,7.5-3.358,7.5-7.5V138.94c0-0.661,0.507-1.199,1.129-1.199h17.413
	c0.623,0,1.129,0.538,1.129,1.199v45.198c0,0.661-0.507,1.198-1.129,1.198H350.279c-0.623,0-1.129-0.538-1.129-1.198V138.94
	c0-0.661,0.507-1.199,1.129-1.199h17.413c0.623,0,1.129,0.538,1.129,1.199v18.948c0,4.142,3.358,7.5,7.5,7.5H405.739z
	 M343.265,110.297h17.413c0.623,0,1.129,0.538,1.129,1.198v11.247h-11.528c-2.972,0-5.75,0.826-8.144,2.24v-13.487
	C342.135,110.834,342.642,110.297,343.265,110.297z M263.993,79.07V59.381l29.128,9.845L263.993,79.07z M151.083,110.297h17.413
	c0.623,0,1.129,0.538,1.129,1.198v13.341c-2.339-1.327-5.032-2.094-7.904-2.094h-11.767v-11.247
	C149.954,110.834,150.461,110.297,151.083,110.297z M15,138.941c0-0.661,0.507-1.199,1.129-1.199h17.413
	c0.623,0,1.129,0.538,1.129,1.199v18.948c0,4.142,3.358,7.5,7.5,7.5h29.418c4.142,0,7.5-3.358,7.5-7.5v-18.948
	c0-0.661,0.507-1.199,1.129-1.199h17.413c0.623,0,1.129,0.538,1.129,1.199v18.948c0,4.142,3.358,7.5,7.5,7.5h29.418
	c4.142,0,7.5-3.358,7.5-7.5v-18.948c0-0.661,0.507-1.199,1.129-1.199h17.413c0.623,0,1.129,0.538,1.129,1.199v45.198
	c0,0.661-0.507,1.198-1.129,1.198H16.129c-0.623,0-1.129-0.538-1.129-1.198V138.941z M130.079,200.337
	c-2.298,3.207-6.029,5.296-10.232,5.296s-7.934-2.089-10.232-5.296H130.079z M68.235,200.337c-2.298,3.207-6.029,5.296-10.232,5.296
	s-7.934-2.089-10.232-5.296H68.235z M29.547,454.373V200.337h1.851c3.263,11.694,13.95,20.296,26.605,20.296
	s23.342-8.602,26.605-20.296h8.634c3.263,11.694,13.95,20.296,26.605,20.296s23.342-8.602,26.605-20.296h1.851v255.234H30.677
	C30.054,455.571,29.547,455.033,29.547,454.373z M298.552,329.048c-4.934-6.862-10.776-12.712-17.364-17.387
	c-15.138-10.741-35.479-10.741-50.616,0c-33.339,23.657-35.376,67.832-35.447,69.701c-0.003,0.094-0.005,0.188-0.005,0.282v73.927
	h-31.817V200.256c8.154-0.801,14.547-7.722,14.547-16.118v-11.247h14.9c4.142,0,7.5-3.358,7.5-7.5s-3.358-7.5-7.5-7.5h-14.9V138.94
	c0-0.337-0.03-0.666-0.05-0.998h28.656c4.142,0,7.5-3.358,7.5-7.5v-18.948c0-0.661,0.507-1.198,1.129-1.198h17.581
	c0.298,0,0.559,0.11,0.776,0.328c0.162,0.163,0.355,0.447,0.354,0.876l-0.081,18.91c-0.008,1.995,0.778,3.91,2.186,5.324
	c1.407,1.414,3.32,2.208,5.314,2.208h29.331c4.133,0,7.487-3.343,7.5-7.476l0.061-18.976c0.002-0.659,0.509-1.194,1.129-1.194h17.44
	c0.623,0,1.129,0.538,1.129,1.198v18.948c0,4.142,3.358,7.5,7.5,7.5H334.2c-0.02,0.332-0.05,0.661-0.05,0.998v18.951H224.355
	c-4.142,0-7.5,3.358-7.5,7.5s3.358,7.5,7.5,7.5h109.794v11.247c0,8.392,6.388,15.311,14.537,16.117L348.58,455.57h-31.94v-73.927
	c0-0.094-0.002-0.188-0.005-0.282c-0.014-0.365-0.373-9.079-3.493-20.695c-1.074-4.001-5.188-6.372-9.188-5.298
	s-6.373,5.188-5.298,9.188c2.479,9.231,2.934,16.327,2.984,17.264v73.75h-6.573v-73.289c0-0.183-0.007-0.367-0.02-0.549
	c-0.267-3.633-3.271-35.965-26.278-52.29c-3.757-2.666-8.214-4.075-12.889-4.075s-9.132,1.409-12.889,4.075
	c-23.058,16.359-26.017,48.626-26.278,52.252c-0.013,0.18-0.02,0.359-0.02,0.54v73.336h-6.574v-73.743
	c0.131-2.323,2.641-39.136,29.133-57.934c9.945-7.058,23.31-7.058,33.255,0c5.235,3.714,9.9,8.395,13.866,13.91
	c2.418,3.363,7.105,4.129,10.468,1.711C300.204,337.097,300.97,332.411,298.552,329.048z M231.694,455.571V382.53
	c0.252-2.981,2.908-28.742,19.978-40.853c1.206-0.855,2.662-1.308,4.209-1.308c1.547,0,3.003,0.452,4.208,1.308
	c17.022,12.078,19.72,37.896,19.979,40.905v72.989L231.694,455.571L231.694,455.571z M392.153,205.633
	c-4.203,0-7.934-2.089-10.232-5.296h20.464C400.086,203.544,396.356,205.633,392.153,205.633z M453.997,205.633
	c-4.203,0-7.934-2.089-10.232-5.296h20.464C461.93,203.544,458.2,205.633,453.997,205.633z"/>
<g>
</g>
<g>
</g>
<g>
</g>
<g>
</g>
<g>
</g>
<g>
</g>
<g>
</g>
<g>
</g>
<g>
</g>
<g>
</g>
<g>
</g>
<g>
</g>
<g>
</g>
<g>
</g>
<g>
</g>
</svg>
